# xmcd CD database file
#
# Track frame offsets:
#	150
#	19900
#	28007
#	44436
#	54149
#	73319
#	82222
#	92233
#	107619
#	121473
#	135713
#	157548
#	177447
#
# Disc length: 2567 seconds
#
# Revision: 0
# Processed by: cddbd v1.5.1PL0 Copyright (c) Steve Scherf et al.
# Submitted via: CDex 1.50
#
DISCID=ad0a050d
DTITLE=Tim Saunders - Electric Acoustic
DYEAR=2005
DGENRE=Country
TTITLE0=Smokin
TTITLE1=Spring Rain
TTITLE2=Bottleneck Blues
TTITLE3=It's About Time
TTITLE4=In Your Dreams
TTITLE5=Etched
TTITLE6=Mirror
TTITLE7=Banjo Blues
TTITLE8=Hypnotised
TTITLE9=Autumn
TTITLE10=Night Sky Play
TTITLE11=For Me And For You
TTITLE12=Picadilli
EXTD=YEAR: 2005
EXTT0=
EXTT1=
EXTT2=
EXTT3=
EXTT4=
EXTT5=
EXTT6=
EXTT7=
EXTT8=
EXTT9=
EXTT10=
EXTT11=
EXTT12=
PLAYORDER=
